<?xml version="1.0" standalone="no"?>
<!DOCTYPE svg PUBLIC "-//W3C//DTD SVG 20010904//EN"
 "http://www.w3.org/TR/2001/REC-SVG-20010904/DTD/svg10.dtd">
<svg version="1.0" xmlns="http://www.w3.org/2000/svg"
 width="700.000000pt" height="700.000000pt" viewBox="0 0 700.000000 700.000000"
 preserveAspectRatio="xMidYMid meet">
<metadata>
Created by potrace 1.14, written by Peter Selinger 2001-2017
</metadata>
<g transform="translate(0.000000,700.000000) scale(0.100000,-0.100000)"
fill="#000000" stroke="none">
<path d="M3377 6424 c-1 -1 -54 -5 -117 -9 -63 -4 -118 -9 -121 -11 -4 -2 -26
-6 -50 -8 -169 -18 -455 -93 -659 -173 -292 -115 -612 -307 -830 -497 -87 -76
-322 -319 -383 -396 -291 -366 -498 -807 -583 -1240 -44 -223 -58 -372 -58
-585 0 -128 12 -354 19 -365 2 -3 7 -33 10 -65 4 -33 9 -63 11 -66 2 -3 6 -24
8 -45 6 -46 46 -209 74 -304 137 -458 373 -856 716 -1209 173 -177 350 -315
611 -478 48 -30 317 -161 391 -191 138 -55 374 -126 489 -146 17 -3 41 -8 55
-11 41 -9 72 -14 125 -21 28 -3 59 -8 70 -10 113 -22 570 -22 695 1 14 2 41 6
60 9 576 74 1173 362 1598 770 40 39 76 73 80 76 15 11 161 178 214 245 215
271 391 606 491 935 27 88 56 197 64 240 2 13 10 53 18 90 7 36 17 92 20 125
4 33 9 69 11 80 23 115 22 517 -1 685 -3 19 -7 49 -9 65 -27 197 -104 490
-171 650 -83 198 -136 306 -223 450 -185 310 -441 593 -742 822 -87 66 -217
153 -229 153 -5 0 -11 4 -13 9 -4 12 -270 150 -376 195 -209 89 -546 184 -714
200 -18 2 -47 6 -63 9 -64 13 -476 31 -488 21z m267 -904 c75 -129 140 -242
145 -250 5 -8 62 -106 126 -218 l117 -203 -47 -81 c-26 -45 -56 -98 -67 -117
-11 -20 -69 -119 -128 -221 -59 -102 -159 -275 -222 -385 -196 -340 -375 -648
-397 -685 -11 -19 -24 -42 -28 -50 -3 -8 -25 -46 -48 -85 -23 -38 -87 -149
-142 -245 -56 -96 -109 -189 -119 -207 -20 -35 -172 -297 -215 -372 -15 -25
-51 -89 -82 -141 -30 -52 -76 -133 -103 -180 -26 -47 -49 -87 -51 -89 -6 -8
-1055 -6 -1060 2 -3 4 0 13 5 20 5 7 171 291 367 632 197 341 368 636 379 656
69 118 156 270 186 325 19 35 41 69 48 76 6 6 12 15 12 19 0 7 187 335 210
369 6 8 15 27 21 43 6 15 15 27 20 27 5 0 9 4 9 9 0 5 23 49 51 98 29 48 63
108 77 133 14 25 52 89 84 143 32 55 58 100 58 102 0 2 44 79 98 171 54 93
135 232 179 309 44 77 144 250 222 384 78 134 141 248 141 254 0 21 20 -10
154 -243z m996 -1723 c41 -71 87 -151 102 -176 15 -25 39 -68 53 -96 15 -27
33 -57 40 -65 6 -8 15 -22 18 -30 4 -8 21 -40 39 -71 18 -31 95 -164 171 -295
76 -131 142 -246 147 -254 24 -39 186 -320 205 -355 12 -22 46 -80 74 -130 29
-49 63 -108 76 -130 12 -22 43 -76 68 -120 26 -43 44 -81 42 -84 -3 -2 -241
-5 -530 -5 l-524 -1 -78 135 c-43 74 -83 144 -90 155 -7 11 -15 26 -19 34 -4
8 -36 64 -72 125 -84 145 -332 575 -346 601 -6 11 -31 54 -55 95 -49 83 -108
186 -138 240 -32 57 -83 144 -93 160 -5 8 -55 95 -111 193 -56 97 -105 180
-110 183 -5 3 -7 9 -4 14 3 4 242 8 532 8 l528 0 75 -131z"/>
</g>
</svg>
